#N canvas 607 614 450 300 10;
#X obj 87 101 midirealtimein;
#X obj 87 151 print;
#X obj 242 165 midiout;
#X msg 231 93 248;
#X msg 263 93 250;
#X msg 296 94 251;
#X msg 329 93 252;
#X connect 0 0 1 0;
#X connect 3 0 2 0;
#X connect 4 0 2 0;
#X connect 5 0 2 0;
#X connect 6 0 2 0;
